#!OML:ASF E:\emotionWalksFemale\Project 1\Capture day 1\Session 1\Female1.ASF
:FULLY-SPECIFIED
:DEGREES
1236
root 9.4724 14.6686 30.0091 -186.845 -184.989 -187.868
lowerback 11.1357 0.228974 1.94627
upperback -3.565 0.799244 2.03187
thorax -10.1114 0.338414 0.929246
lowerneck -4.08574 -4.65062 -7.84748
upperneck 10.6361 -6.73588 9.81347
head 4.43616 -3.14971 3.94973
rclavicle 1.51573e-014 1.82882e-014
rhumerus -48.8544 3.80989 -76.2117
rradius 35.1764
rwrist 32.3875
rhand -7.9539 -55.6188
rfingers 7.12502
rthumb 17.9532 635.19
lclavicle 1.51573e-014 1.82882e-014
lhumerus -52.3696 -5.41951 83.5652
lradius 56.1652
lwrist -14.39
lhand -26.8904 -57.328
lfingers 7.12502
lthumb -0.314236 -27.3485
rfemur -12.1449 0.203919 37.9075
rtibia 38.238
rfoot -17.0851 -20.1924
rtoes 17.7367
lfemur -33.2858 -4.55282 -12.1298
ltibia 71.2367
lfoot -15.8885 6.19979
ltoes -21.7209
1237
root 9.49342 14.6734 30.1898 -186.699 -184.323 -187.955
lowerback 11.0595 0.32359 2.20586
upperback -3.56841 0.963539 2.04134
thorax -10.0672 0.401519 0.761065
lowerneck -4.14383 -4.54574 -7.73674
upperneck 10.688 -6.59345 9.73811
head 4.44248 -3.07692 3.91599
rclavicle 6.95746e-016 2.78299e-015
rhumerus -47.3283 3.33548 -75.9425
rradius 37.1836
rwrist 28.246
rhand -8.96196 -55.3922
rfingers 7.12502
rthumb 16.9831 635.33
lclavicle 6.95746e-016 2.78299e-015
lhumerus -52.9549 -5.37331 83.4855
lradius 52.3407
lwrist -16.2998
lhand -26.7635 -57.7252
lfingers 7.12502
lthumb -0.191678 -27.7456
rfemur -11.233 0.354755 38.092
rtibia 37.9725
rfoot -17.4717 -19.9817
rtoes 15.7864
lfemur -34.1212 -5.32593 -11.8838
ltibia 67.8777
lfoot -15.8851 7.10966
ltoes -16.7176
1238
root 9.51302 14.6831 30.3674 -186.473 -183.648 -188.12
lowerback 10.9978 0.417334 2.57622
upperback -3.60162 1.14323 2.03796
thorax -10.0612 0.464263 0.514332
lowerneck -4.28167 -4.47639 -7.62023
upperneck 10.6905 -6.49736 9.70913
head 4.45318 -3.02277 3.89108
rclavicle -3.62782e-015 9.14409e-015
rhumerus -45.8592 3.17597 -75.9532
rradius 39.504
rwrist 24.0127
rhand -8.6382 -55.8294
rfingers 7.12502
rthumb 17.2947 634.92
lclavicle -3.62782e-015 9.14409e-015
lhumerus -53.5701 -5.1841 83.2361
lradius 48.7061
lwrist -18.7125
lhand -26.7292 -57.7275
lfingers 7.12502
lthumb -0.158542 -27.7478
rfemur -10.4135 0.616708 38.3238
rtibia 37.5941
rfoot -17.6377 -19.6575
rtoes 14.9478
lfemur -34.7099 -6.06409 -11.4394
ltibia 64.1147
lfoot -17.0021 8.19078
ltoes -16.5345
1239
root 9.53253 14.6934 30.5449 -186.276 -182.954 -188.168
lowerback 10.9801 0.558394 2.86353
upperback -3.63523 1.37052 1.98227
thorax -10.0787 0.552771 0.248933
lowerneck -4.2997 -4.39542 -7.40275
upperneck 10.5358 -6.3841 9.6339
head 4.38994 -2.9637 3.83873
rclavicle 5.61567e-015 7.95139e-015
rhumerus -44.551 3.31549 -76.179
rradius 42.0868
rwrist 19.5042
rhand -8.46041 -56.7086
rfingers 7.12502
rthumb 17.4658 634.056
lclavicle 5.61567e-015 7.95139e-015
lhumerus -54.1967 -4.76994 82.7623
lradius 45.4011
lwrist -21.6967
lhand -26.5076 -57.0123
lfingers 7.12502
lthumb 0.0554555 -27.0326
rfemur -9.52309 0.878846 38.4137
rtibia 37.1144
rfoot -17.8541 -19.4734
rtoes 14.3696
lfemur -34.8985 -6.88691 -11.0292
ltibia 60.0177
lfoot -17.7127 8.75677
ltoes -10.8351
1240
root 9.5502 14.7097 30.7269 -186.128 -182.065 -188.062
lowerback 10.9148 0.780805 2.91794
upperback -3.62684 1.67079 1.95477
thorax -10.0239 0.69326 0.131464
lowerneck -4.13487 -4.26675 -7.28931
upperneck 10.2123 -6.19906 9.5934
head 4.24303 -2.87876 3.82262
rclavicle 3.08116e-015 1.35174e-014
rhumerus -43.3438 3.49374 -76.3288
rradius 44.6714
rwrist 15.0931
rhand -8.3101 -57.1632
rfingers 7.12502
rthumb 17.6104 633.614
lclavicle 3.08116e-015 1.35174e-014
lhumerus -54.8661 -4.15738 82.2096
lradius 42.4161
lwrist -24.5451
lhand -25.6145 -55.502
lfingers 7.12502
lthumb 0.918037 -25.5243
rfemur -8.49426 1.23754 38.3655
rtibia 36.5681
rfoot -18.338 -19.2905
rtoes 14.018
lfemur -34.7481 -7.67035 -10.6942
ltibia 55.7202
lfoot -17.8619 9.52738
ltoes -10.9884
1241
root 9.5656 14.7401 30.9133 -185.987 -181.097 -187.988
lowerback 10.7788 1.00052 2.94521
upperback -3.59405 1.96306 1.96963
thorax -9.90213 0.834507 0.0784583
lowerneck -4.17264 -4.13158 -7.25505
upperneck 10.031 -6.00173 9.58558
head 4.17604 -2.78192 3.82606
rclavicle -1.59028e-015 4.77083e-015
rhumerus -42.2834 3.66153 -76.4465
rradius 47.2183
rwrist 11.7516
rhand -8.16407 -57.6067
rfingers 7.12502
rthumb 17.751 633.183
lclavicle -1.59028e-015 4.77083e-015
lhumerus -55.5719 -3.54211 81.6624
lradius 39.5675
lwrist -26.8086
lhand -24.1891 -53.3144
lfingers 7.12502
lthumb 2.29473 -23.347
rfemur -7.40194 1.65147 38.3418
rtibia 35.9232
rfoot -18.6391 -18.7911
rtoes 15.6343
lfemur -34.5091 -8.40716 -10.2841
ltibia 51.3395
lfoot -17.7292 10.3549
ltoes -12.672
1242
root 9.58601 14.761 31.0958 -185.881 -180.244 -187.988
lowerback 10.6981 1.14354 3.08837
upperback -3.57821 2.1728 1.98752
thorax -9.82937 0.928338 -0.0206806
lowerneck -4.30214 -3.97957 -7.13252
upperneck 10.0141 -5.78498 9.48011
head 4.16736 -2.67243 3.78378
rclavicle 2.08724e-014 5.96354e-015
rhumerus -41.3378 4.24333 -76.7443
rradius 49.8781
rwrist 9.0354
rhand -8.61597 -57.9333
rfingers 7.12502
rthumb 17.3161 632.818
lclavicle 2.08724e-014 5.96354e-015
lhumerus -56.2899 -2.72984 80.9229
lradius 36.8773
lwrist -28.7147
lhand -21.9983 -50.5573
lfingers 7.12502
lthumb 4.41037 -20.6232
rfemur -6.2268 1.98363 38.3466
rtibia 35.1534
rfoot -18.7554 -18.305
rtoes 16.7155
lfemur -34.1998 -9.15864 -9.84783
ltibia 47.0339
lfoot -17.3264 11.2985
ltoes -17.8648
1243
root 9.60974 14.7763 31.2769 -185.771 -179.4 -188.004
lowerback 10.6596 1.29265 3.27725
upperback -3.61482 2.40112 2.00265
thorax -9.83629 1.02672 -0.152519
lowerneck -4.30784 -3.88997 -7.02919
upperneck 10.0087 -5.65453 9.32936
head 4.14845 -2.61157 3.72754
rclavicle -1.61513e-014 -1.35174e-014
rhumerus -40.4022 5.07835 -77.0794
rradius 52.784
rwrist 6.15601
rhand -8.13234 -58.507
rfingers 7.12502
rthumb 17.7815 632.286
lclavicle -1.61513e-014 -1.35174e-014
lhumerus -57.1236 -1.77967 80.0166
lradius 34.5194
lwrist -30.1729
lhand -18.8518 -47.3447
lfingers 7.12502
lthumb 7.44816 -17.4959
rfemur -4.98523 2.3926 38.3516
rtibia 34.2723
rfoot -19.2177 -17.9624
rtoes 17.2705
lfemur -33.8358 -10.108 -9.2902
ltibia 42.9562
lfoot -17.2497 11.9181
ltoes -21.3877
1244
root 9.63417 14.7914 31.4595 -185.743 -178.516 -188.136
lowerback 10.6106 1.46869 3.66507
upperback -3.57258 2.68882 2.0042
thorax -9.73813 1.14329 -0.420004
lowerneck -4.29574 -3.85966 -6.93711
upperneck 9.88644 -5.60566 9.26018
head 4.10104 -2.58924 3.69393
rclavicle 2.06736e-014 1.39149e-014
rhumerus -39.4091 5.92619 -77.4326
rradius 55.0567
rwrist 5.0991
rhand -8.27893 -57.7111
rfingers 7.12502
rthumb 17.6404 633.069
lclavicle 2.06736e-014 1.39149e-014
lhumerus -58.0034 -0.77381 78.9374
lradius 32.7509
lwrist -31.5173
lhand -14.7505 -43.6639
lfingers 7.12502
lthumb 11.4054 -13.9941
rfemur -3.66558 2.83252 38.4864
rtibia 33.4261
rfoot -19.368 -17.7375
rtoes 16.4419
lfemur -33.3592 -11.6501 -8.35071
ltibia 39.2378
lfoot -17.6529 12.4639
ltoes -22.9119
1245
root 9.66176 14.7966 31.6404 -185.75 -177.666 -188.213
lowerback 10.6458 1.62131 3.99672
upperback -3.55389 2.94288 2.01096
thorax -9.71594 1.24592 -0.646104
lowerneck -4.13379 -3.70653 -6.63209
upperneck 9.70394 -5.39566 9.05447
head 3.98768 -2.4906 3.59487
rclavicle 1.19271e-014 -3.97569e-015
rhumerus -38.5042 6.79766 -77.7001
rradius 57.4706
rwrist 4.48497
rhand -8.11317 -57.3587
rfingers 7.12502
rthumb 17.7999 633.436
lclavicle 1.19271e-014 -3.97569e-015
lhumerus -59.0681 0.426028 77.6353
lradius 31.5013
lwrist -33.3036
lhand -9.57689 -39.4927
lfingers 7.12502
lthumb 16.3911 -10.1652
rfemur -2.30236 3.19605 38.5582
rtibia 32.6214
rfoot -18.8482 -17.7233
rtoes 13.1565
lfemur -32.8673 -14.0193 -7.1998
ltibia 35.9875
lfoot -18.3353 13.6369
ltoes -23.8394
